<mxfile host="app.diagrams.net" agent="Mozilla/5.0 (Windows NT 10.0; Win64; x64) AppleWebKit/537.36 (KHTML, like Gecko) Chrome/127.0.0.0 Safari/537.36 OPR/113.0.0.0" version="24.7.14">
  <diagram name="Página-1" id="3ERqFXelpWX4h_zWqFgs">
    <mxGraphModel grid="1" page="1" gridSize="10" guides="1" tooltips="1" connect="1" arrows="1" fold="1" pageScale="1" pageWidth="827" pageHeight="1169" math="0" shadow="0">
      <root>
        <mxCell id="0" />
        <mxCell id="1" parent="0" />
        <mxCell id="4J5Ed5LZJGo_F6osCuhS-1" value="" style="swimlane;html=1;childLayout=stackLayout;startSize=20;rounded=0;shadow=0;comic=0;labelBackgroundColor=none;strokeWidth=1;fontFamily=Verdana;fontSize=12;align=center;direction=east;" vertex="1" parent="1">
          <mxGeometry x="320" y="20" width="1000" height="1060" as="geometry">
            <mxRectangle y="20" width="70" height="30" as="alternateBounds" />
          </mxGeometry>
        </mxCell>
        <mxCell id="4J5Ed5LZJGo_F6osCuhS-2" value="Usuario" style="swimlane;html=1;startSize=20;" vertex="1" parent="4J5Ed5LZJGo_F6osCuhS-1">
          <mxGeometry y="20" width="250" height="1040" as="geometry" />
        </mxCell>
        <mxCell id="4J5Ed5LZJGo_F6osCuhS-3" style="edgeStyle=orthogonalEdgeStyle;rounded=0;orthogonalLoop=1;jettySize=auto;html=1;entryX=0.5;entryY=0;entryDx=0;entryDy=0;" edge="1" parent="4J5Ed5LZJGo_F6osCuhS-2" source="4J5Ed5LZJGo_F6osCuhS-4" target="4J5Ed5LZJGo_F6osCuhS-6">
          <mxGeometry relative="1" as="geometry" />
        </mxCell>
        <mxCell id="4J5Ed5LZJGo_F6osCuhS-4" value="" style="ellipse;whiteSpace=wrap;html=1;rounded=0;shadow=0;comic=0;labelBackgroundColor=none;strokeWidth=1;fillColor=#000000;fontFamily=Verdana;fontSize=12;align=center;" vertex="1" parent="4J5Ed5LZJGo_F6osCuhS-2">
          <mxGeometry x="105" y="40" width="40" height="40" as="geometry" />
        </mxCell>
        <mxCell id="4J5Ed5LZJGo_F6osCuhS-5" value="" style="shape=mxgraph.bpmn.shape;html=1;verticalLabelPosition=bottom;labelBackgroundColor=#ffffff;verticalAlign=top;perimeter=ellipsePerimeter;outline=end;symbol=terminate;rounded=0;shadow=0;comic=0;strokeWidth=1;fontFamily=Verdana;fontSize=12;align=center;" vertex="1" parent="4J5Ed5LZJGo_F6osCuhS-2">
          <mxGeometry x="105" y="980" width="40" height="40" as="geometry" />
        </mxCell>
        <mxCell id="4J5Ed5LZJGo_F6osCuhS-6" value="Iniciar aplicación" style="rounded=0;whiteSpace=wrap;html=1;" vertex="1" parent="4J5Ed5LZJGo_F6osCuhS-2">
          <mxGeometry x="65" y="120" width="120" height="60" as="geometry" />
        </mxCell>
        <mxCell id="4J5Ed5LZJGo_F6osCuhS-7" value="Ingresar Registro de usuario" style="whiteSpace=wrap;html=1;rounded=0;" vertex="1" parent="4J5Ed5LZJGo_F6osCuhS-2">
          <mxGeometry x="65" y="240" width="120" height="60" as="geometry" />
        </mxCell>
        <mxCell id="4J5Ed5LZJGo_F6osCuhS-8" style="edgeStyle=orthogonalEdgeStyle;rounded=0;orthogonalLoop=1;jettySize=auto;html=1;" edge="1" parent="4J5Ed5LZJGo_F6osCuhS-2" source="4J5Ed5LZJGo_F6osCuhS-9" target="4J5Ed5LZJGo_F6osCuhS-5">
          <mxGeometry relative="1" as="geometry" />
        </mxCell>
        <mxCell id="4J5Ed5LZJGo_F6osCuhS-9" value="Visualiza el apartado inicio de sesion" style="whiteSpace=wrap;html=1;rounded=0;" vertex="1" parent="4J5Ed5LZJGo_F6osCuhS-2">
          <mxGeometry x="65" y="890" width="120" height="60" as="geometry" />
        </mxCell>
        <mxCell id="4J5Ed5LZJGo_F6osCuhS-10" value="Ingresar usuario y contraseña" style="rounded=0;whiteSpace=wrap;html=1;" vertex="1" parent="4J5Ed5LZJGo_F6osCuhS-2">
          <mxGeometry x="65" y="330" width="120" height="60" as="geometry" />
        </mxCell>
        <mxCell id="4J5Ed5LZJGo_F6osCuhS-11" value="Interfaz" style="swimlane;html=1;startSize=20;" vertex="1" parent="4J5Ed5LZJGo_F6osCuhS-1">
          <mxGeometry x="250" y="20" width="250" height="1040" as="geometry" />
        </mxCell>
        <mxCell id="4J5Ed5LZJGo_F6osCuhS-12" value="Despliega apartado Inicio sesión" style="rounded=0;whiteSpace=wrap;html=1;" vertex="1" parent="4J5Ed5LZJGo_F6osCuhS-11">
          <mxGeometry x="65" y="120" width="120" height="60" as="geometry" />
        </mxCell>
        <mxCell id="4J5Ed5LZJGo_F6osCuhS-13" value="" style="edgeStyle=orthogonalEdgeStyle;rounded=0;orthogonalLoop=1;jettySize=auto;html=1;" edge="1" parent="4J5Ed5LZJGo_F6osCuhS-11" source="4J5Ed5LZJGo_F6osCuhS-14" target="4J5Ed5LZJGo_F6osCuhS-17">
          <mxGeometry relative="1" as="geometry" />
        </mxCell>
        <mxCell id="4J5Ed5LZJGo_F6osCuhS-14" value="Botón registro de usuario" style="whiteSpace=wrap;html=1;rounded=0;" vertex="1" parent="4J5Ed5LZJGo_F6osCuhS-11">
          <mxGeometry x="65" y="240" width="120" height="60" as="geometry" />
        </mxCell>
        <mxCell id="4J5Ed5LZJGo_F6osCuhS-15" value="Mensaje de error de usuario y/o contraseña" style="whiteSpace=wrap;html=1;rounded=0;" vertex="1" parent="4J5Ed5LZJGo_F6osCuhS-11">
          <mxGeometry x="65" y="510" width="120" height="60" as="geometry" />
        </mxCell>
        <mxCell id="4J5Ed5LZJGo_F6osCuhS-16" value="Mensaje de usuario creado con exito" style="whiteSpace=wrap;html=1;rounded=0;" vertex="1" parent="4J5Ed5LZJGo_F6osCuhS-11">
          <mxGeometry x="60" y="820" width="120" height="60" as="geometry" />
        </mxCell>
        <mxCell id="4J5Ed5LZJGo_F6osCuhS-17" value="Despliegue apartado registro de usuario" style="whiteSpace=wrap;html=1;rounded=0;" vertex="1" parent="4J5Ed5LZJGo_F6osCuhS-11">
          <mxGeometry x="65" y="330" width="120" height="60" as="geometry" />
        </mxCell>
        <mxCell id="4J5Ed5LZJGo_F6osCuhS-18" value="Botón crear usuario" style="whiteSpace=wrap;html=1;rounded=0;" vertex="1" parent="4J5Ed5LZJGo_F6osCuhS-11">
          <mxGeometry x="65" y="420" width="120" height="60" as="geometry" />
        </mxCell>
        <mxCell id="4J5Ed5LZJGo_F6osCuhS-19" value="Capa de negocio" style="swimlane;html=1;startSize=20;" vertex="1" parent="4J5Ed5LZJGo_F6osCuhS-1">
          <mxGeometry x="500" y="20" width="250" height="1040" as="geometry">
            <mxRectangle x="500" y="20" width="40" height="970" as="alternateBounds" />
          </mxGeometry>
        </mxCell>
        <mxCell id="4J5Ed5LZJGo_F6osCuhS-20" value="Recopila los datos" style="whiteSpace=wrap;html=1;rounded=0;" vertex="1" parent="4J5Ed5LZJGo_F6osCuhS-19">
          <mxGeometry x="65" y="820" width="120" height="60" as="geometry" />
        </mxCell>
        <mxCell id="4J5Ed5LZJGo_F6osCuhS-21" value="" style="group" connectable="0" vertex="1" parent="4J5Ed5LZJGo_F6osCuhS-19">
          <mxGeometry x="72.5" y="495" width="105" height="100" as="geometry" />
        </mxCell>
        <mxCell id="4J5Ed5LZJGo_F6osCuhS-22" value="¿Campos completos?" style="rhombus;whiteSpace=wrap;html=1;rounded=0;" vertex="1" parent="4J5Ed5LZJGo_F6osCuhS-21">
          <mxGeometry x="15" width="90" height="90" as="geometry" />
        </mxCell>
        <mxCell id="4J5Ed5LZJGo_F6osCuhS-23" value="No" style="rounded=1;whiteSpace=wrap;html=1;" vertex="1" parent="4J5Ed5LZJGo_F6osCuhS-21">
          <mxGeometry y="35" width="20" height="20" as="geometry" />
        </mxCell>
        <mxCell id="4J5Ed5LZJGo_F6osCuhS-24" value="Si" style="rounded=1;whiteSpace=wrap;html=1;" vertex="1" parent="4J5Ed5LZJGo_F6osCuhS-21">
          <mxGeometry x="50" y="80" width="20" height="20" as="geometry" />
        </mxCell>
        <mxCell id="4J5Ed5LZJGo_F6osCuhS-25" style="edgeStyle=orthogonalEdgeStyle;rounded=0;orthogonalLoop=1;jettySize=auto;html=1;exitX=0.5;exitY=1;exitDx=0;exitDy=0;entryX=0.5;entryY=0;entryDx=0;entryDy=0;" edge="1" parent="4J5Ed5LZJGo_F6osCuhS-19" source="4J5Ed5LZJGo_F6osCuhS-24" target="4J5Ed5LZJGo_F6osCuhS-27">
          <mxGeometry relative="1" as="geometry">
            <mxPoint x="132.5" y="680.0000000000002" as="targetPoint" />
          </mxGeometry>
        </mxCell>
        <mxCell id="4J5Ed5LZJGo_F6osCuhS-26" value="" style="group" connectable="0" vertex="1" parent="4J5Ed5LZJGo_F6osCuhS-19">
          <mxGeometry x="72.5" y="640" width="105" height="100" as="geometry" />
        </mxCell>
        <mxCell id="4J5Ed5LZJGo_F6osCuhS-27" value="¿Existe el usuario?" style="rhombus;whiteSpace=wrap;html=1;rounded=0;" vertex="1" parent="4J5Ed5LZJGo_F6osCuhS-26">
          <mxGeometry x="15" width="90" height="90" as="geometry" />
        </mxCell>
        <mxCell id="4J5Ed5LZJGo_F6osCuhS-28" value="Si" style="rounded=1;whiteSpace=wrap;html=1;" vertex="1" parent="4J5Ed5LZJGo_F6osCuhS-26">
          <mxGeometry y="35" width="20" height="20" as="geometry" />
        </mxCell>
        <mxCell id="4J5Ed5LZJGo_F6osCuhS-29" value="No" style="rounded=1;whiteSpace=wrap;html=1;" vertex="1" parent="4J5Ed5LZJGo_F6osCuhS-26">
          <mxGeometry x="50" y="80" width="20" height="20" as="geometry" />
        </mxCell>
        <mxCell id="4J5Ed5LZJGo_F6osCuhS-30" value="Base de datos" style="swimlane;html=1;startSize=20;" vertex="1" parent="4J5Ed5LZJGo_F6osCuhS-1">
          <mxGeometry x="750" y="20" width="250" height="1040" as="geometry">
            <mxRectangle x="500" y="20" width="40" height="970" as="alternateBounds" />
          </mxGeometry>
        </mxCell>
        <mxCell id="4J5Ed5LZJGo_F6osCuhS-31" value="Guarda el usuario" style="whiteSpace=wrap;html=1;rounded=0;" vertex="1" parent="4J5Ed5LZJGo_F6osCuhS-30">
          <mxGeometry x="65" y="700" width="120" height="60" as="geometry" />
        </mxCell>
        <mxCell id="4J5Ed5LZJGo_F6osCuhS-32" style="edgeStyle=orthogonalEdgeStyle;rounded=0;orthogonalLoop=1;jettySize=auto;html=1;entryX=0;entryY=0.5;entryDx=0;entryDy=0;" edge="1" parent="4J5Ed5LZJGo_F6osCuhS-1" source="4J5Ed5LZJGo_F6osCuhS-6" target="4J5Ed5LZJGo_F6osCuhS-12">
          <mxGeometry relative="1" as="geometry" />
        </mxCell>
        <mxCell id="4J5Ed5LZJGo_F6osCuhS-33" value="" style="edgeStyle=orthogonalEdgeStyle;rounded=0;orthogonalLoop=1;jettySize=auto;html=1;" edge="1" parent="4J5Ed5LZJGo_F6osCuhS-1" source="4J5Ed5LZJGo_F6osCuhS-12" target="4J5Ed5LZJGo_F6osCuhS-7">
          <mxGeometry relative="1" as="geometry">
            <Array as="points">
              <mxPoint x="375" y="210" />
              <mxPoint x="125" y="210" />
            </Array>
          </mxGeometry>
        </mxCell>
        <mxCell id="4J5Ed5LZJGo_F6osCuhS-34" value="" style="edgeStyle=orthogonalEdgeStyle;rounded=0;orthogonalLoop=1;jettySize=auto;html=1;entryX=0;entryY=0.5;entryDx=0;entryDy=0;exitX=1;exitY=0.5;exitDx=0;exitDy=0;" edge="1" parent="4J5Ed5LZJGo_F6osCuhS-1" source="4J5Ed5LZJGo_F6osCuhS-7" target="4J5Ed5LZJGo_F6osCuhS-14">
          <mxGeometry relative="1" as="geometry">
            <mxPoint x="210" y="290" as="sourcePoint" />
            <Array as="points" />
          </mxGeometry>
        </mxCell>
        <mxCell id="4J5Ed5LZJGo_F6osCuhS-35" value="" style="edgeStyle=orthogonalEdgeStyle;rounded=0;orthogonalLoop=1;jettySize=auto;html=1;" edge="1" parent="4J5Ed5LZJGo_F6osCuhS-1" source="4J5Ed5LZJGo_F6osCuhS-31" target="4J5Ed5LZJGo_F6osCuhS-20">
          <mxGeometry relative="1" as="geometry">
            <Array as="points">
              <mxPoint x="760" y="870" />
              <mxPoint x="760" y="870" />
            </Array>
          </mxGeometry>
        </mxCell>
        <mxCell id="4J5Ed5LZJGo_F6osCuhS-36" value="" style="edgeStyle=orthogonalEdgeStyle;rounded=0;orthogonalLoop=1;jettySize=auto;html=1;" edge="1" parent="4J5Ed5LZJGo_F6osCuhS-1" source="4J5Ed5LZJGo_F6osCuhS-20" target="4J5Ed5LZJGo_F6osCuhS-16">
          <mxGeometry relative="1" as="geometry" />
        </mxCell>
        <mxCell id="4J5Ed5LZJGo_F6osCuhS-37" style="edgeStyle=orthogonalEdgeStyle;rounded=0;orthogonalLoop=1;jettySize=auto;html=1;entryX=1;entryY=0.5;entryDx=0;entryDy=0;exitX=0;exitY=0.5;exitDx=0;exitDy=0;" edge="1" parent="4J5Ed5LZJGo_F6osCuhS-1" source="4J5Ed5LZJGo_F6osCuhS-23" target="4J5Ed5LZJGo_F6osCuhS-15">
          <mxGeometry relative="1" as="geometry">
            <mxPoint x="572.5" y="744.9999999999998" as="sourcePoint" />
          </mxGeometry>
        </mxCell>
        <mxCell id="4J5Ed5LZJGo_F6osCuhS-38" value="" style="edgeStyle=orthogonalEdgeStyle;rounded=0;orthogonalLoop=1;jettySize=auto;html=1;" edge="1" parent="4J5Ed5LZJGo_F6osCuhS-1" source="4J5Ed5LZJGo_F6osCuhS-16" target="4J5Ed5LZJGo_F6osCuhS-9">
          <mxGeometry relative="1" as="geometry">
            <Array as="points">
              <mxPoint x="110" y="870" />
            </Array>
          </mxGeometry>
        </mxCell>
        <mxCell id="4J5Ed5LZJGo_F6osCuhS-39" style="edgeStyle=orthogonalEdgeStyle;rounded=0;orthogonalLoop=1;jettySize=auto;html=1;entryX=1;entryY=0.5;entryDx=0;entryDy=0;" edge="1" parent="4J5Ed5LZJGo_F6osCuhS-1" source="4J5Ed5LZJGo_F6osCuhS-17" target="4J5Ed5LZJGo_F6osCuhS-10">
          <mxGeometry relative="1" as="geometry" />
        </mxCell>
        <mxCell id="4J5Ed5LZJGo_F6osCuhS-40" value="" style="edgeStyle=orthogonalEdgeStyle;rounded=0;orthogonalLoop=1;jettySize=auto;html=1;" edge="1" parent="4J5Ed5LZJGo_F6osCuhS-1" source="4J5Ed5LZJGo_F6osCuhS-10" target="4J5Ed5LZJGo_F6osCuhS-18">
          <mxGeometry relative="1" as="geometry">
            <Array as="points">
              <mxPoint x="125" y="470" />
            </Array>
          </mxGeometry>
        </mxCell>
        <mxCell id="4J5Ed5LZJGo_F6osCuhS-41" style="edgeStyle=orthogonalEdgeStyle;rounded=0;orthogonalLoop=1;jettySize=auto;html=1;entryX=0.5;entryY=0;entryDx=0;entryDy=0;" edge="1" parent="4J5Ed5LZJGo_F6osCuhS-1" source="4J5Ed5LZJGo_F6osCuhS-18" target="4J5Ed5LZJGo_F6osCuhS-22">
          <mxGeometry relative="1" as="geometry" />
        </mxCell>
        <mxCell id="4J5Ed5LZJGo_F6osCuhS-42" style="edgeStyle=orthogonalEdgeStyle;rounded=0;orthogonalLoop=1;jettySize=auto;html=1;entryX=0;entryY=0.5;entryDx=0;entryDy=0;" edge="1" parent="4J5Ed5LZJGo_F6osCuhS-1" source="4J5Ed5LZJGo_F6osCuhS-15" target="4J5Ed5LZJGo_F6osCuhS-10">
          <mxGeometry relative="1" as="geometry" />
        </mxCell>
        <mxCell id="4J5Ed5LZJGo_F6osCuhS-43" style="edgeStyle=orthogonalEdgeStyle;rounded=0;orthogonalLoop=1;jettySize=auto;html=1;entryX=0.5;entryY=1;entryDx=0;entryDy=0;" edge="1" parent="4J5Ed5LZJGo_F6osCuhS-1" source="4J5Ed5LZJGo_F6osCuhS-28" target="4J5Ed5LZJGo_F6osCuhS-15">
          <mxGeometry relative="1" as="geometry" />
        </mxCell>
        <mxCell id="4J5Ed5LZJGo_F6osCuhS-44" style="edgeStyle=orthogonalEdgeStyle;rounded=0;orthogonalLoop=1;jettySize=auto;html=1;entryX=0;entryY=0.5;entryDx=0;entryDy=0;" edge="1" parent="4J5Ed5LZJGo_F6osCuhS-1" source="4J5Ed5LZJGo_F6osCuhS-29" target="4J5Ed5LZJGo_F6osCuhS-31">
          <mxGeometry relative="1" as="geometry" />
        </mxCell>
      </root>
    </mxGraphModel>
  </diagram>
</mxfile>
